mtllib material.mtl
usemtl spacebits_texture
v -0.18750000 0.00000000 0.18750000
v -0.18750000 0.00000000 0.18750000
v -0.18750000 0.00000000 0.18750000
v -0.18750000 0.06250000 0.25000000
v -0.18750000 0.06250000 0.25000000
v -0.18750000 0.06250000 0.25000000
v -0.25000000 0.06250000 0.18750000
v -0.25000000 0.06250000 0.18750000
v -0.18750000 0.43750000 0.25000000
v -0.18750000 0.43750000 0.25000000
v -0.18750000 0.50000000 0.18750000
v -0.18750000 0.50000000 0.18750000
v -0.18750000 0.50000000 0.18750000
v -0.25000000 0.43750000 0.18750000
v -0.25000000 0.43750000 0.18750000
v -0.25000000 0.43750000 0.18750000
v -0.18750000 0.00000000 -0.18750000
v -0.18750000 0.00000000 -0.18750000
v -0.18750000 0.00000000 -0.18750000
v -0.25000000 0.06250000 -0.18750000
v -0.25000000 0.06250000 -0.18750000
v -0.25000000 0.06250000 -0.18750000
v -0.18750000 0.06250000 -0.25000000
v -0.18750000 0.06250000 -0.25000000
v -0.18750000 0.50000000 -0.18750000
v -0.18750000 0.50000000 -0.18750000
v -0.18750000 0.50000000 -0.18750000
v -0.18750000 0.43750000 -0.25000000
v -0.18750000 0.43750000 -0.25000000
v -0.18750000 0.43750000 -0.25000000
v -0.25000000 0.43750000 -0.18750000
v -0.25000000 0.43750000 -0.18750000
v 0.18750000 0.00000000 0.18750000
v 0.18750000 0.00000000 0.18750000
v 0.18750000 0.00000000 0.18750000
v 0.25000000 0.06250000 0.18750000
v 0.25000000 0.06250000 0.18750000
v 0.25000000 0.06250000 0.18750000
v 0.18750000 0.06250000 0.25000000
v 0.18750000 0.06250000 0.25000000
v 0.18750000 0.50000000 0.18750000
v 0.18750000 0.50000000 0.18750000
v 0.18750000 0.50000000 0.18750000
v 0.18750000 0.43750000 0.25000000
v 0.18750000 0.43750000 0.25000000
v 0.18750000 0.43750000 0.25000000
v 0.25000000 0.43750000 0.18750000
v 0.25000000 0.43750000 0.18750000
v 0.18750000 0.00000000 -0.18750000
v 0.18750000 0.00000000 -0.18750000
v 0.18750000 0.00000000 -0.18750000
v 0.18750000 0.06250000 -0.25000000
v 0.18750000 0.06250000 -0.25000000
v 0.18750000 0.06250000 -0.25000000
v 0.25000000 0.06250000 -0.18750000
v 0.25000000 0.06250000 -0.18750000
v 0.18750000 0.50000000 -0.18750000
v 0.18750000 0.50000000 -0.18750000
v 0.18750000 0.50000000 -0.18750000
v 0.25000000 0.43750000 -0.18750000
v 0.25000000 0.43750000 -0.18750000
v 0.25000000 0.43750000 -0.18750000
v 0.18750000 0.43750000 -0.25000000
v 0.18750000 0.43750000 -0.25000000
v -0.18750000 0.25000000 0.25000000
v -0.18750000 0.25000000 0.25000000
v -0.18750000 0.25000000 0.25000000
v -0.18750000 0.25000000 0.25000000
v -0.25000000 0.25000000 0.18750000
v -0.25000000 0.25000000 0.18750000
v -0.25000000 0.25000000 0.18750000
v -0.25000000 0.25000000 0.18750000
v -0.18750000 0.25000000 -0.25000000
v -0.18750000 0.25000000 -0.25000000
v -0.18750000 0.25000000 -0.25000000
v -0.18750000 0.25000000 -0.25000000
v -0.25000000 0.25000000 -0.18750000
v -0.25000000 0.25000000 -0.18750000
v -0.25000000 0.25000000 -0.18750000
v -0.25000000 0.25000000 -0.18750000
v 0.25000000 0.25000000 -0.18750000
v 0.25000000 0.25000000 -0.18750000
v 0.25000000 0.25000000 -0.18750000
v 0.25000000 0.25000000 -0.18750000
v 0.18750000 0.25000000 -0.25000000
v 0.18750000 0.25000000 -0.25000000
v 0.18750000 0.25000000 -0.25000000
v 0.18750000 0.25000000 -0.25000000
v 0.18750000 0.25000000 0.25000000
v 0.18750000 0.25000000 0.25000000
v 0.18750000 0.25000000 0.25000000
v 0.18750000 0.25000000 0.25000000
v 0.25000000 0.25000000 0.18750000
v 0.25000000 0.25000000 0.18750000
v 0.25000000 0.25000000 0.18750000
v 0.25000000 0.25000000 0.18750000
v 0.10000000 0.50000000 0.05000000
v 0.10000000 0.52000100 0.10000000
v 0.10000000 0.52000100 0.10000000
v 0.13535500 0.50000000 0.06464500
v 0.15000000 0.50000000 0.10000000
v 0.13535500 0.50000000 0.13535500
v 0.10000000 0.50000000 0.15000000
v 0.06464500 0.50000000 0.13535500
v 0.05000000 0.50000000 0.10000000
v 0.06464500 0.50000000 0.06464500
v 0.12758400 0.52000100 0.07241600
v 0.12758400 0.52000100 0.07241600
v 0.10000000 0.52000100 0.06099000
v 0.10000000 0.52000100 0.06099000
v 0.13901000 0.52000100 0.10000000
v 0.13901000 0.52000100 0.10000000
v 0.13901000 0.52000100 0.10000000
v 0.12758400 0.52000100 0.12758400
v 0.12758400 0.52000100 0.12758400
v 0.10000000 0.52000100 0.13901000
v 0.10000000 0.52000100 0.13901000
v 0.07241600 0.52000100 0.12758400
v 0.07241600 0.52000100 0.12758400
v 0.06099000 0.52000100 0.10000000
v 0.06099000 0.52000100 0.10000000
v 0.06099000 0.52000100 0.10000000
v 0.07241600 0.52000100 0.07241600
v 0.07241600 0.52000100 0.07241600
v 0.10000000 0.50000000 0.05000000
v 0.10000000 0.52000100 0.10000000
v 0.10000000 0.52000100 0.10000000
v 0.13535500 0.50000000 0.06464500
v 0.15000000 0.50000000 0.10000000
v 0.13535500 0.50000000 0.13535500
v 0.10000000 0.50000000 0.15000000
v 0.06464500 0.50000000 0.13535500
v 0.05000000 0.50000000 0.10000000
v 0.06464500 0.50000000 0.06464500
v 0.12758400 0.52000100 0.07241600
v 0.12758400 0.52000100 0.07241600
v 0.10000000 0.52000100 0.06099000
v 0.10000000 0.52000100 0.06099000
v 0.13901000 0.52000100 0.10000000
v 0.13901000 0.52000100 0.10000000
v 0.13901000 0.52000100 0.10000000
v 0.12758400 0.52000100 0.12758400
v 0.12758400 0.52000100 0.12758400
v 0.10000000 0.52000100 0.13901000
v 0.10000000 0.52000100 0.13901000
v 0.07241600 0.52000100 0.12758400
v 0.07241600 0.52000100 0.12758400
v 0.06099000 0.52000100 0.10000000
v 0.06099000 0.52000100 0.10000000
v 0.06099000 0.52000100 0.10000000
v 0.07241600 0.52000100 0.07241600
v 0.07241600 0.52000100 0.07241600
v -0.17685300 0.07937500 0.26025000
v -0.17685300 0.07937500 0.26025000
v -0.17685300 0.07937500 0.26025000
v -0.02314700 0.07937500 0.26025000
v -0.02314700 0.07937500 0.26025000
v -0.02314700 0.07937500 0.26025000
v -0.17685300 0.17312500 0.26025000
v -0.17685300 0.17312500 0.26025000
v -0.17685300 0.17312500 0.26025000
v -0.02314700 0.17312500 0.26025000
v -0.02314700 0.17312500 0.26025000
v -0.02314700 0.17312500 0.26025000
v -0.02314700 0.17312500 0.16025000
v -0.02314700 0.17312500 0.16025000
v -0.02314700 0.07937500 0.16025000
v -0.02314700 0.07937500 0.16025000
v -0.17685300 0.07937500 0.16025000
v -0.17685300 0.07937500 0.16025000
v -0.17685300 0.17312500 0.16025000
v -0.17685300 0.17312500 0.16025000
v 0.17685300 0.07937500 -0.26025000
v 0.17685300 0.07937500 -0.26025000
v 0.17685300 0.07937500 -0.26025000
v 0.02314700 0.07937500 -0.26025000
v 0.02314700 0.07937500 -0.26025000
v 0.02314700 0.07937500 -0.26025000
v 0.17685300 0.17312500 -0.26025000
v 0.17685300 0.17312500 -0.26025000
v 0.17685300 0.17312500 -0.26025000
v 0.02314700 0.17312500 -0.26025000
v 0.02314700 0.17312500 -0.26025000
v 0.02314700 0.17312500 -0.26025000
v 0.02314700 0.17312500 -0.16025000
v 0.02314700 0.17312500 -0.16025000
v 0.02314700 0.07937500 -0.16025000
v 0.02314700 0.07937500 -0.16025000
v 0.17685300 0.07937500 -0.16025000
v 0.17685300 0.07937500 -0.16025000
v 0.17685300 0.17312500 -0.16025000
v 0.17685300 0.17312500 -0.16025000
vn -0.34160000 -0.87560000 0.34160000
vn -0.34160000 -0.87560000 0.34160000
vn -0.34160000 -0.87560000 0.34160000
vn -0.34160000 -0.34160000 0.87560000
vn -0.34160000 -0.34160000 0.87560000
vn -0.34160000 -0.34160000 0.87560000
vn -0.87560000 -0.34160000 0.34160000
vn -0.87560000 -0.34160000 0.34160000
vn -0.34160000 0.34160000 0.87560000
vn -0.34160000 0.34160000 0.87560000
vn -0.34160000 0.87560000 0.34160000
vn -0.34160000 0.87560000 0.34160000
vn -0.34160000 0.87560000 0.34160000
vn -0.87560000 0.34160000 0.34160000
vn -0.87560000 0.34160000 0.34160000
vn -0.87560000 0.34160000 0.34160000
vn -0.34160000 -0.87560000 -0.34160000
vn -0.34160000 -0.87560000 -0.34160000
vn -0.34160000 -0.87560000 -0.34160000
vn -0.87560000 -0.34160000 -0.34160000
vn -0.87560000 -0.34160000 -0.34160000
vn -0.87560000 -0.34160000 -0.34160000
vn -0.34160000 -0.34160000 -0.87560000
vn -0.34160000 -0.34160000 -0.87560000
vn -0.34160000 0.87560000 -0.34160000
vn -0.34160000 0.87560000 -0.34160000
vn -0.34160000 0.87560000 -0.34160000
vn -0.34160000 0.34160000 -0.87560000
vn -0.34160000 0.34160000 -0.87560000
vn -0.34160000 0.34160000 -0.87560000
vn -0.87560000 0.34160000 -0.34160000
vn -0.87560000 0.34160000 -0.34160000
vn 0.34160000 -0.87560000 0.34160000
vn 0.34160000 -0.87560000 0.34160000
vn 0.34160000 -0.87560000 0.34160000
vn 0.87560000 -0.34160000 0.34160000
vn 0.87560000 -0.34160000 0.34160000
vn 0.87560000 -0.34160000 0.34160000
vn 0.34160000 -0.34160000 0.87560000
vn 0.34160000 -0.34160000 0.87560000
vn 0.34160000 0.87560000 0.34160000
vn 0.34160000 0.87560000 0.34160000
vn 0.34160000 0.87560000 0.34160000
vn 0.34160000 0.34160000 0.87560000
vn 0.34160000 0.34160000 0.87560000
vn 0.34160000 0.34160000 0.87560000
vn 0.87560000 0.34160000 0.34160000
vn 0.87560000 0.34160000 0.34160000
vn 0.34160000 -0.87560000 -0.34160000
vn 0.34160000 -0.87560000 -0.34160000
vn 0.34160000 -0.87560000 -0.34160000
vn 0.34160000 -0.34160000 -0.87560000
vn 0.34160000 -0.34160000 -0.87560000
vn 0.34160000 -0.34160000 -0.87560000
vn 0.87560000 -0.34160000 -0.34160000
vn 0.87560000 -0.34160000 -0.34160000
vn 0.34160000 0.87560000 -0.34160000
vn 0.34160000 0.87560000 -0.34160000
vn 0.34160000 0.87560000 -0.34160000
vn 0.87560000 0.34160000 -0.34160000
vn 0.87560000 0.34160000 -0.34160000
vn 0.87560000 0.34160000 -0.34160000
vn 0.34160000 0.34160000 -0.87560000
vn 0.34160000 0.34160000 -0.87560000
vn -0.38270000 0.00000000 0.92390000
vn -0.38270000 0.00000000 0.92390000
vn -0.38270000 0.00000000 0.92390000
vn -0.38270000 0.00000000 0.92390000
vn -0.92390000 0.00000000 0.38270000
vn -0.92390000 0.00000000 0.38270000
vn -0.92390000 0.00000000 0.38270000
vn -0.92390000 0.00000000 0.38270000
vn -0.38270000 0.00000000 -0.92390000
vn -0.38270000 0.00000000 -0.92390000
vn -0.38270000 0.00000000 -0.92390000
vn -0.38270000 0.00000000 -0.92390000
vn -0.92390000 0.00000000 -0.38270000
vn -0.92390000 0.00000000 -0.38270000
vn -0.92390000 0.00000000 -0.38270000
vn -0.92390000 0.00000000 -0.38270000
vn 0.92390000 0.00000000 -0.38270000
vn 0.92390000 0.00000000 -0.38270000
vn 0.92390000 0.00000000 -0.38270000
vn 0.92390000 0.00000000 -0.38270000
vn 0.38270000 0.00000000 -0.92390000
vn 0.38270000 0.00000000 -0.92390000
vn 0.38270000 0.00000000 -0.92390000
vn 0.38270000 0.00000000 -0.92390000
vn 0.38270000 0.00000000 0.92390000
vn 0.38270000 0.00000000 0.92390000
vn 0.38270000 0.00000000 0.92390000
vn 0.38270000 0.00000000 0.92390000
vn 0.92390000 0.00000000 0.38270000
vn 0.92390000 0.00000000 0.38270000
vn 0.92390000 0.00000000 0.38270000
vn 0.92390000 0.00000000 0.38270000
vn -0.00000000 0.48160000 -0.87640000
vn 0.00000000 1.00000000 0.00000000
vn 0.00000000 1.00000000 0.00000000
vn 0.61970000 0.48160000 -0.61970000
vn 0.87640000 0.48160000 -0.00000000
vn 0.61970000 0.48160000 0.61970000
vn 0.00000000 0.48160000 0.87640000
vn -0.61970000 0.48160000 0.61970000
vn -0.87640000 0.48160000 -0.00000000
vn -0.61970000 0.48160000 -0.61970000
vn 0.61970000 0.48160000 -0.61970000
vn 0.00000000 1.00000000 0.00000000
vn 0.00000000 1.00000000 0.00000000
vn -0.00000000 0.48160000 -0.87640000
vn 0.87640000 0.48160000 -0.00000000
vn 0.00000000 1.00000000 0.00000000
vn 0.00000000 1.00000000 0.00000000
vn 0.00000000 1.00000000 0.00000000
vn 0.61970000 0.48160000 0.61970000
vn 0.00000000 1.00000000 0.00000000
vn 0.00000000 0.48160000 0.87640000
vn -0.61970000 0.48160000 0.61970000
vn 0.00000000 1.00000000 0.00000000
vn 0.00000000 1.00000000 0.00000000
vn -0.87640000 0.48160000 -0.00000000
vn 0.00000000 1.00000000 0.00000000
vn 0.00000000 1.00000000 0.00000000
vn -0.61970000 0.48160000 -0.61970000
vn -0.00000000 0.48160000 -0.87640000
vn 0.00000000 1.00000000 0.00000000
vn 0.00000000 1.00000000 0.00000000
vn 0.61970000 0.48160000 -0.61970000
vn 0.87640000 0.48160000 -0.00000000
vn 0.61970000 0.48160000 0.61970000
vn 0.00000000 0.48160000 0.87640000
vn -0.61970000 0.48160000 0.61970000
vn -0.87640000 0.48160000 -0.00000000
vn -0.61970000 0.48160000 -0.61970000
vn 0.00000000 1.00000000 0.00000000
vn 0.61970000 0.48160000 -0.61970000
vn -0.00000000 0.48160000 -0.87640000
vn 0.00000000 1.00000000 0.00000000
vn 0.00000000 1.00000000 0.00000000
vn 0.00000000 1.00000000 0.00000000
vn 0.87640000 0.48160000 -0.00000000
vn 0.61970000 0.48160000 0.61970000
vn 0.00000000 1.00000000 0.00000000
vn 0.00000000 0.48160000 0.87640000
vn 0.00000000 1.00000000 0.00000000
vn 0.00000000 1.00000000 0.00000000
vn -0.61970000 0.48160000 0.61970000
vn -0.87640000 0.48160000 -0.00000000
vn 0.00000000 1.00000000 0.00000000
vn 0.00000000 1.00000000 0.00000000
vn -0.61970000 0.48160000 -0.61970000
vn 0.00000000 1.00000000 0.00000000
vn 0.00000000 -1.00000000 0.00000000
vn -1.00000000 0.00000000 0.00000000
vn 0.00000000 0.00000000 1.00000000
vn 0.00000000 -1.00000000 0.00000000
vn 0.00000000 0.00000000 1.00000000
vn 1.00000000 0.00000000 0.00000000
vn 0.00000000 1.00000000 0.00000000
vn -1.00000000 0.00000000 0.00000000
vn 0.00000000 0.00000000 1.00000000
vn 1.00000000 0.00000000 0.00000000
vn 0.00000000 1.00000000 0.00000000
vn 0.00000000 0.00000000 1.00000000
vn 1.00000000 0.00000000 0.00000000
vn 0.00000000 1.00000000 0.00000000
vn 1.00000000 0.00000000 0.00000000
vn 0.00000000 -1.00000000 0.00000000
vn 0.00000000 -1.00000000 0.00000000
vn -1.00000000 0.00000000 0.00000000
vn 0.00000000 1.00000000 0.00000000
vn -1.00000000 0.00000000 0.00000000
vn 1.00000000 0.00000000 0.00000000
vn -0.00000000 0.00000000 -1.00000000
vn 0.00000000 -1.00000000 0.00000000
vn 0.00000000 -1.00000000 0.00000000
vn -1.00000000 0.00000000 0.00000000
vn -0.00000000 0.00000000 -1.00000000
vn 1.00000000 0.00000000 0.00000000
vn 0.00000000 1.00000000 0.00000000
vn -0.00000000 0.00000000 -1.00000000
vn -1.00000000 0.00000000 0.00000000
vn 0.00000000 1.00000000 0.00000000
vn -0.00000000 0.00000000 -1.00000000
vn -1.00000000 0.00000000 0.00000000
vn 0.00000000 1.00000000 0.00000000
vn -1.00000000 0.00000000 0.00000000
vn 0.00000000 -1.00000000 0.00000000
vn 1.00000000 0.00000000 0.00000000
vn 0.00000000 -1.00000000 0.00000000
vn 0.00000000 1.00000000 0.00000000
vn 1.00000000 0.00000000 0.00000000
vt 0.17517500 0.87333700
vt 0.17517500 0.88896200
vt 0.17517500 0.85771200
vt 0.17517500 0.88156800
vt 0.17517500 0.86594300
vt 0.17517500 0.89719300
vt 0.17105700 0.85031800
vt 0.17105700 0.88156800
vt 0.56385800 0.68095100
vt 0.56385800 0.71220100
vt 0.56385800 0.67355900
vt 0.56385800 0.70480900
vt 0.56385800 0.72043400
vt 0.56020300 0.71220100
vt 0.56020300 0.69657600
vt 0.56020300 0.66532600
vt 0.17517500 0.87333700
vt 0.17517500 0.85771200
vt 0.17517500 0.88896200
vt 0.17105700 0.88156800
vt 0.17105700 0.89719300
vt 0.17105700 0.86594300
vt 0.17517500 0.88156800
vt 0.17517500 0.85031800
vt 0.56385800 0.72043400
vt 0.56385800 0.67355900
vt 0.56385800 0.70480900
vt 0.56385800 0.66532600
vt 0.56385800 0.71220100
vt 0.56385800 0.69657600
vt 0.56020300 0.71220100
vt 0.56020300 0.68095100
vt 0.19986700 0.85771200
vt 0.19986700 0.88896200
vt 0.19986700 0.87333700
vt 0.20398200 0.88156800
vt 0.20398200 0.89719300
vt 0.20398200 0.86594300
vt 0.19986700 0.88156800
vt 0.19986700 0.85031800
vt 0.58577400 0.72043400
vt 0.58577400 0.70480900
vt 0.58577400 0.67355900
vt 0.58577400 0.69657600
vt 0.58577400 0.71220100
vt 0.58577400 0.66532600
vt 0.58942600 0.68095100
vt 0.58942600 0.71220100
vt 0.19986700 0.87333700
vt 0.19986700 0.85771200
vt 0.19986700 0.88896200
vt 0.19986700 0.88156800
vt 0.19986700 0.89719300
vt 0.19986700 0.86594300
vt 0.20398200 0.88156800
vt 0.20398200 0.85031800
vt 0.58577400 0.72043400
vt 0.58577400 0.70480900
vt 0.58577400 0.67355900
vt 0.58942600 0.71220100
vt 0.58942600 0.69657600
vt 0.58942600 0.66532600
vt 0.58577400 0.68095100
vt 0.58577400 0.71220100
vt 0.56385800 0.68751000
vt 0.56385800 0.65626000
vt 0.17517500 0.90626000
vt 0.17517500 0.89063500
vt 0.56020300 0.64063500
vt 0.56020300 0.68751000
vt 0.17105700 0.90626000
vt 0.17105700 0.87501000
vt 0.17517500 0.87501000
vt 0.56385800 0.68751000
vt 0.56385800 0.64063500
vt 0.17517500 0.90626000
vt 0.17105700 0.89063500
vt 0.56020300 0.68751000
vt 0.17105700 0.90626000
vt 0.56020300 0.65626000
vt 0.58942600 0.68751000
vt 0.20398200 0.90626000
vt 0.58942600 0.64063500
vt 0.20398200 0.87501000
vt 0.58577400 0.65626000
vt 0.19986700 0.90626000
vt 0.58577400 0.68751000
vt 0.19986700 0.89063500
vt 0.19986700 0.87501000
vt 0.58577400 0.68751000
vt 0.19986700 0.90626000
vt 0.58577400 0.64063500
vt 0.20398200 0.90626000
vt 0.58942600 0.65626000
vt 0.58942600 0.68751000
vt 0.20398200 0.89063500
vt 0.29985800 0.84392200
vt 0.29985800 0.89893500
vt 0.29985800 0.86768500
vt 0.31950200 0.84392200
vt 0.32761100 0.84392200
vt 0.31950200 0.84392200
vt 0.29985800 0.84392200
vt 0.28023400 0.84392200
vt 0.27210500 0.84392200
vt 0.28023400 0.84392200
vt 0.31518600 0.86768500
vt 0.31518600 0.89893500
vt 0.29985800 0.89893500
vt 0.29985800 0.86768500
vt 0.32151500 0.86768500
vt 0.32151500 0.89893500
vt 0.32151500 0.86768500
vt 0.31518600 0.91456000
vt 0.31518600 0.86768500
vt 0.29985800 0.91456000
vt 0.29985800 0.86768500
vt 0.28455000 0.86768500
vt 0.28455000 0.91456000
vt 0.27822100 0.86768500
vt 0.27822100 0.86768500
vt 0.27822100 0.89893500
vt 0.28455000 0.89893500
vt 0.28455000 0.86768500
vt 0.29985800 0.84392200
vt 0.29985800 0.89893500
vt 0.29985800 0.86768500
vt 0.31950200 0.84392200
vt 0.32761100 0.84392200
vt 0.31950200 0.84392200
vt 0.29985800 0.84392200
vt 0.28023400 0.84392200
vt 0.27210500 0.84392200
vt 0.28023400 0.84392200
vt 0.31518600 0.89893500
vt 0.31518600 0.86768500
vt 0.29985800 0.86768500
vt 0.29985800 0.89893500
vt 0.32151500 0.89893500
vt 0.32151500 0.86768500
vt 0.32151500 0.86768500
vt 0.31518600 0.86768500
vt 0.31518600 0.91456000
vt 0.29985800 0.86768500
vt 0.29985800 0.91456000
vt 0.28455000 0.91456000
vt 0.28455000 0.86768500
vt 0.27822100 0.86768500
vt 0.27822100 0.89893500
vt 0.27822100 0.86768500
vt 0.28455000 0.86768500
vt 0.28455000 0.89893500
vt 0.41877600 0.61594300
vt 0.41877600 0.61594300
vt 0.41877600 0.61594300
vt 0.43849700 0.60031800
vt 0.43849700 0.60031800
vt 0.43849700 0.60031800
vt 0.41877600 0.64063500
vt 0.41877600 0.64063500
vt 0.41877600 0.64063500
vt 0.43849700 0.62501000
vt 0.43849700 0.62501000
vt 0.43849700 0.62501000
vt 0.43849700 0.62501000
vt 0.43849700 0.62501000
vt 0.43849700 0.60031800
vt 0.43849700 0.60031800
vt 0.41877600 0.61594300
vt 0.41877600 0.61594300
vt 0.41877600 0.64063500
vt 0.41877600 0.64063500
vt 0.41877600 0.61594300
vt 0.41877600 0.61594300
vt 0.41877600 0.61594300
vt 0.43849700 0.60031800
vt 0.43849700 0.60031800
vt 0.43849700 0.60031800
vt 0.41877600 0.64063500
vt 0.41877600 0.64063500
vt 0.41877600 0.64063500
vt 0.43849700 0.62501000
vt 0.43849700 0.62501000
vt 0.43849700 0.62501000
vt 0.43849700 0.62501000
vt 0.43849700 0.62501000
vt 0.43849700 0.60031800
vt 0.43849700 0.60031800
vt 0.41877600 0.61594300
vt 0.41877600 0.61594300
vt 0.41877600 0.64063500
vt 0.41877600 0.64063500
f 92/92/92 46/46/46 9/9/9
f 9/9/9 66/66/66 92/92/92
f 83/83/83 62/62/62 47/47/47
f 47/47/47 94/94/94 83/83/83
f 18/18/18 50/50/50 33/33/33
f 33/33/33 3/3/3 18/18/18
f 1/1/1 4/4/4 8/8/8
f 10/10/10 13/13/13 14/14/14
f 17/17/17 20/20/20 23/23/23
f 25/25/25 29/29/29 31/31/31
f 35/35/35 36/36/36 39/39/39
f 41/41/41 45/45/45 48/48/48
f 49/49/49 52/52/52 55/55/55
f 57/57/57 60/60/60 64/64/64
f 69/69/69 16/16/16 32/32/32
f 32/32/32 80/80/80 69/69/69
f 65/65/65 10/10/10 14/14/14
f 14/14/14 70/70/70 65/65/65
f 19/19/19 1/1/1 8/8/8
f 8/8/8 21/21/21 19/19/19
f 76/76/76 23/23/23 20/20/20
f 20/20/20 79/79/79 76/76/76
f 75/75/75 28/28/28 63/63/63
f 63/63/63 85/85/85 75/75/75
f 51/51/51 17/17/17 23/23/23
f 23/23/23 53/53/53 51/51/51
f 82/82/82 55/55/55 52/52/52
f 52/52/52 86/86/86 82/82/82
f 12/12/12 25/25/25 31/31/31
f 31/31/31 15/15/15 12/12/12
f 34/34/34 49/49/49 55/55/55
f 55/55/55 37/37/37 34/34/34
f 91/91/91 39/39/39 36/36/36
f 36/36/36 93/93/93 91/91/91
f 27/27/27 57/57/57 64/64/64
f 64/64/64 30/30/30 27/27/27
f 2/2/2 35/35/35 39/39/39
f 39/39/39 6/6/6 2/2/2
f 42/42/42 13/13/13 10/10/10
f 10/10/10 44/44/44 42/42/42
f 45/45/45 90/90/90 95/95/95
f 95/95/95 48/48/48 45/45/45
f 60/60/60 81/81/81 87/87/87
f 87/87/87 64/64/64 60/60/60
f 29/29/29 74/74/74 78/78/78
f 78/78/78 31/31/31 29/29/29
f 4/4/4 67/67/67 71/71/71
f 71/71/71 8/8/8 4/4/4
f 56/56/56 84/84/84 96/96/96
f 96/96/96 38/38/38 56/56/56
f 58/58/58 41/41/41 48/48/48
f 48/48/48 61/61/61 58/58/58
f 7/7/7 72/72/72 77/77/77
f 77/77/77 22/22/22 7/7/7
f 24/24/24 73/73/73 88/88/88
f 88/88/88 54/54/54 24/24/24
f 59/59/59 26/26/26 11/11/11
f 11/11/11 43/43/43 59/59/59
f 40/40/40 89/89/89 68/68/68
f 68/68/68 5/5/5 40/40/40
f 97/97/97 110/110/110 107/107/107
f 107/107/107 100/100/100 97/97/97
f 100/100/100 107/107/107 111/111/111
f 111/111/111 101/101/101 100/100/100
f 101/101/101 111/111/111 115/115/115
f 115/115/115 102/102/102 101/101/101
f 102/102/102 115/115/115 117/117/117
f 117/117/117 103/103/103 102/102/102
f 103/103/103 117/117/117 118/118/118
f 118/118/118 104/104/104 103/103/103
f 104/104/104 118/118/118 121/121/121
f 121/121/121 105/105/105 104/104/104
f 105/105/105 121/121/121 124/124/124
f 124/124/124 106/106/106 105/105/105
f 106/106/106 124/124/124 110/110/110
f 110/110/110 97/97/97 106/106/106
f 98/98/98 108/108/108 109/109/109
f 98/98/98 112/112/112 108/108/108
f 99/99/99 114/114/114 113/113/113
f 99/99/99 116/116/116 114/114/114
f 99/99/99 119/119/119 116/116/116
f 99/99/99 120/120/120 119/119/119
f 98/98/98 123/123/123 122/122/122
f 98/98/98 109/109/109 123/123/123
f 125/125/125 137/137/137 136/136/136
f 136/136/136 128/128/128 125/125/125
f 128/128/128 136/136/136 141/141/141
f 141/141/141 129/129/129 128/128/128
f 129/129/129 141/141/141 142/142/142
f 142/142/142 130/130/130 129/129/129
f 130/130/130 142/142/142 144/144/144
f 144/144/144 131/131/131 130/130/130
f 131/131/131 144/144/144 147/147/147
f 147/147/147 132/132/132 131/131/131
f 132/132/132 147/147/147 148/148/148
f 148/148/148 133/133/133 132/132/132
f 133/133/133 148/148/148 151/151/151
f 151/151/151 134/134/134 133/133/133
f 134/134/134 151/151/151 137/137/137
f 137/137/137 125/125/125 134/134/134
f 126/126/126 135/135/135 138/138/138
f 126/126/126 139/139/139 135/135/135
f 127/127/127 143/143/143 140/140/140
f 127/127/127 145/145/145 143/143/143
f 127/127/127 146/146/146 145/145/145
f 127/127/127 150/150/150 146/146/146
f 126/126/126 152/152/152 149/149/149
f 126/126/126 138/138/138 152/152/152
f 157/157/157 164/164/164 161/161/161
f 161/161/161 155/155/155 157/157/157
f 153/153/153 169/169/169 168/168/168
f 168/168/168 156/156/156 153/153/153
f 158/158/158 167/167/167 165/165/165
f 165/165/165 162/162/162 158/158/158
f 163/163/163 166/166/166 171/171/171
f 171/171/171 159/159/159 163/163/163
f 160/160/160 172/172/172 170/170/170
f 170/170/170 154/154/154 160/160/160
f 178/178/178 184/184/184 181/181/181
f 181/181/181 174/174/174 178/178/178
f 175/175/175 190/190/190 188/188/188
f 188/188/188 176/176/176 175/175/175
f 177/177/177 187/187/187 185/185/185
f 185/185/185 182/182/182 177/177/177
f 183/183/183 186/186/186 191/191/191
f 191/191/191 180/180/180 183/183/183
f 179/179/179 192/192/192 189/189/189
f 189/189/189 173/173/173 179/179/179

